<?xml version="1.0" encoding="utf-8"?>
<!-- Generator: Adobe Illustrator 16.0.2, SVG Export Plug-In . SVG Version: 6.00 Build 0)  -->
<!DOCTYPE svg PUBLIC "-//W3C//DTD SVG 1.1//EN" "http://www.w3.org/Graphics/SVG/1.1/DTD/svg11.dtd">
<svg version="1.1" id="Layer_1" xmlns="http://www.w3.org/2000/svg" xmlns:xlink="http://www.w3.org/1999/xlink" x="0px" y="0px"
	 width="3000px" height="750px" viewBox="0 0 3000 750" enable-background="new 0 0 3000 750" xml:space="preserve">
<g>
	<polygon fill="#E5E5E5" points="137.03,417.77 135.75,418.329 135.75,421.808 137.03,422.367 	"/>
	<polygon fill="#E5E5E5" points="140.53,416.085 138.667,417.066 138.667,423.169 140.53,424.15 	"/>
	<polygon fill="#E5E5E5" points="145.613,413.751 142.667,415.331 142.667,425.153 145.613,426.733 	"/>
	<polygon fill="#E5E5E5" points="152.727,410.084 148.613,412.557 148.613,427.927 152.727,430.399 	"/>
	<polygon fill="#E5E5E5" points="179.227,394.266 168.5,400.382 168.5,438.398 179.227,444.515 	"/>
	<polygon fill="#E5E5E5" points="162.727,403.266 156.5,407.252 156.5,432.028 162.727,436.015 	"/>
	<polygon fill="#E5E5E5" points="260.227,331.338 237.5,352.407 237.5,483.376 260.227,504.443 	"/>
	<polygon fill="#E5E5E5" points="226.727,359.838 207.5,374.091 207.5,462.69 226.727,476.943 	"/>
	<polygon fill="#E5E5E5" points="199.227,379.766 186,389.29 186,448.49 199.227,458.015 	"/>
	<polygon fill="#E5E5E5" points="302.727,293.658 272.363,323.852 272.363,511.541 302.727,541.732 	"/>
	<polygon fill="#E5E5E5" points="315.33,281.124 315.33,411.427 515.177,411.427 515.177,281.124 484.813,250.933 484.813,381.236 
		345.693,381.236 345.693,250.933 	"/>
	<polygon fill="#E5E5E5" points="527.781,293.658 527.781,541.732 558.142,511.541 558.142,323.852 	"/>
	<polygon fill="#E5E5E5" points="515.177,554.265 515.177,423.962 315.33,423.962 315.33,554.265 345.693,584.459 345.693,454.155 
		484.813,454.155 484.813,584.459 	"/>
</g>
<text id="ARVIACODE" transform="matrix(1.0494 0 0 1 621.0889 585.3779)" fill="#E5E5E5" font-family="'Impact'" font-size="421.4713">HARVIACODE</text>
<polygon fill="#E5E5E5" points="134.863,418.715 134.042,419.052 134.042,421.142 134.863,421.479 "/>
</svg>
